<svg width="15" height="15" viewBox="0 0 15 15" fill="none" xmlns="http://www.w3.org/2000/svg">
<g clip-path="url(#clip0)">
<path fill-rule="evenodd" clip-rule="evenodd" d="M14.9999 14.1721C14.9999 14.6293 14.6292 15 14.1721 15H0.827868C0.370545 15 0 14.6293 0 14.1721V0.827868C0 0.370604 0.370545 0 0.827868 0H14.1721C14.6292 0 14.9999 0.370604 14.9999 0.827868V14.1721ZM10.3497 9.1912V15H8.01197V9.1912H6.05718V6.92744H8.01197V5.25794C8.01197 3.32048 9.19521 2.26551 10.9236 2.26551C11.7514 2.26551 12.463 2.32715 12.6704 2.35474V4.37944L11.4716 4.37997C10.5317 4.37997 10.3497 4.82663 10.3497 5.48206V6.92744H12.5914L12.2995 9.1912H10.3497Z" fill="#381716" fill-opacity="0.8"/>
</g>
<defs>
<clipPath id="clip0">
<rect width="14.9999" height="15" fill="white"/>
</clipPath>
</defs>
</svg>
