<svg width="16" height="15" viewBox="0 0 16 15" fill="none" xmlns="http://www.w3.org/2000/svg">
<g clip-path="url(#clip0)">
<path fill-rule="evenodd" clip-rule="evenodd" d="M1.56456 0H14.3472C14.959 0 15.4576 0.484121 15.4576 1.08111V13.9176C15.4576 14.5151 14.959 15 14.3471 15H1.56456C0.953674 15 0.457397 14.5151 0.457397 13.9176V1.08123C0.457397 0.484121 0.953674 0 1.56456 0ZM3.79413 2.06513C4.50561 2.06513 5.0835 2.64314 5.0835 3.35473C5.0835 4.06679 4.50561 4.64503 3.79413 4.64503C3.08126 4.64503 2.50407 4.06679 2.50407 3.35473C2.50407 2.64314 3.08126 2.06513 3.79413 2.06513ZM2.6813 5.62357H4.90615V12.782H2.6813V5.62357ZM6.30164 5.62357H8.43585V6.60154H8.46548C8.76241 6.03893 9.48813 5.44542 10.5705 5.44542C12.8234 5.44542 13.2393 6.92799 13.2393 8.85545V12.782H11.0161V9.3009C11.0161 8.4703 11.0008 7.40262 9.85996 7.40262C8.7021 7.40262 8.52486 8.30696 8.52486 9.24071V12.7819H6.30164V5.62357Z" fill="#381716" fill-opacity="0.8"/>
</g>
<defs>
<clipPath id="clip0">
<rect x="0.457397" width="15.0002" height="15" fill="white"/>
</clipPath>
</defs>
</svg>
