<svg width="21" height="20" viewBox="0 0 21 20" fill="none" xmlns="http://www.w3.org/2000/svg">
<g clip-path="url(#clip0)">
<path fill-rule="evenodd" clip-rule="evenodd" d="M1.96894 0.0327148H18.9568C19.7699 0.0327148 20.4325 0.676099 20.4325 1.46948V18.5289C20.4325 19.3229 19.7699 19.9673 18.9566 19.9673H1.96894C1.1571 19.9673 0.497559 19.3229 0.497559 18.5289V1.46964C0.497559 0.676099 1.1571 0.0327148 1.96894 0.0327148ZM4.93199 2.77722C5.87753 2.77722 6.64553 3.54538 6.64553 4.49107C6.64553 5.43737 5.87753 6.20584 4.93199 6.20584C3.9846 6.20584 3.21753 5.43737 3.21753 4.49107C3.21753 3.54538 3.9846 2.77722 4.93199 2.77722ZM3.45306 7.5063H6.40984V17.0197H3.45306V7.5063ZM8.2644 7.5063H11.1007V8.80599H11.1401C11.5347 8.0583 12.4992 7.26953 13.9376 7.26953C16.9316 7.26953 17.4844 9.23984 17.4844 11.8014V17.0197H14.5298V12.3934C14.5298 11.2895 14.5095 9.87061 12.9933 9.87061C11.4546 9.87061 11.219 11.0725 11.219 12.3134V17.0195H8.2644V7.5063Z" fill="#FFC821"/>
</g>
<defs>
<clipPath id="clip0">
<rect x="0.497559" y="0.0327148" width="19.9349" height="19.9346" fill="white"/>
</clipPath>
</defs>
</svg>
