<svg width="25" height="20" viewBox="0 0 25 20" fill="none" xmlns="http://www.w3.org/2000/svg">
<g clip-path="url(#clip0)">
<path d="M24.4976 2.4024C23.5962 2.80211 22.6276 3.07226 21.6109 3.19379C22.6487 2.57178 23.4455 1.5868 23.8208 0.413214C22.8342 0.998655 21.7548 1.41113 20.6293 1.63283C19.7124 0.656085 18.4063 0.0456543 16.9607 0.0456543C14.185 0.0456543 11.9345 2.29599 11.9345 5.07149C11.9345 5.46546 11.979 5.849 12.0647 6.21695C7.88765 6.00728 4.18431 4.00642 1.70536 0.965654C1.27282 1.70795 1.02498 2.5714 1.02498 3.49235C1.02498 5.23608 1.91234 6.77436 3.26086 7.6757C2.46273 7.65071 1.68215 7.43514 0.984306 7.04699C0.984019 7.06805 0.984019 7.0891 0.984019 7.11025C0.984019 9.54537 2.71646 11.5768 5.0156 12.0385C4.27549 12.2398 3.49917 12.2692 2.74593 12.1246C3.38545 14.1213 5.24163 15.5744 7.44086 15.615C5.72077 16.963 3.55359 17.7665 1.19895 17.7665C0.793206 17.7665 0.393206 17.7427 0 17.6963C2.22421 19.1223 4.86603 19.9544 7.70431 19.9544C16.949 19.9544 22.0042 12.2959 22.0042 5.65436C22.0042 5.43637 21.9994 5.21963 21.9897 5.00412C22.9736 4.29282 23.8229 3.41179 24.4976 2.4024" fill="#FFC821"/>
</g>
<defs>
<clipPath id="clip0">
<rect y="0.0456543" width="24.4976" height="19.9087" fill="white"/>
</clipPath>
</defs>
</svg>
