<svg width="19" height="15" viewBox="0 0 19 15" fill="none" xmlns="http://www.w3.org/2000/svg">
<g clip-path="url(#clip0)">
<path d="M18.4575 1.77567C17.7783 2.07682 17.0485 2.28036 16.2825 2.37193C17.0644 1.90328 17.6648 1.16116 17.9475 0.276934C17.2042 0.718028 16.3909 1.02881 15.5429 1.19584C14.8521 0.459922 13.868 0 12.7788 0C10.6875 0 8.99195 1.69549 8.99195 3.78666C8.99195 4.0835 9.02548 4.37247 9.09001 4.64969C5.94287 4.49172 3.15262 2.9842 1.28488 0.693164C0.958995 1.25244 0.772257 1.90299 0.772257 2.59688C0.772257 3.91067 1.44084 5.06967 2.45686 5.74878C1.85551 5.72994 1.2674 5.56753 0.741615 5.27508C0.741399 5.29095 0.741399 5.30681 0.741399 5.32274C0.741399 7.15746 2.04669 8.68798 3.77895 9.03586C3.22132 9.18752 2.63641 9.20971 2.06889 9.10075C2.55073 10.6052 3.94925 11.6999 5.60624 11.7306C4.31025 12.7462 2.67741 13.3516 0.903334 13.3516C0.597632 13.3516 0.296257 13.3336 0 13.2987C1.67581 14.3731 3.66626 15 5.80473 15C12.77 15 16.5788 9.22981 16.5788 4.22582C16.5788 4.06158 16.5752 3.89827 16.5679 3.7359C17.3092 3.19998 17.9491 2.53618 18.4575 1.77567Z" fill="#381716" fill-opacity="0.8"/>
</g>
<defs>
<clipPath id="clip0">
<rect width="18.4575" height="15" fill="white"/>
</clipPath>
</defs>
</svg>
